{"asset":{"version":"2.0","generator":"VECTARY"},"nodes":[{"translation":[0,-8.326672684688674e-20,0.0003791973474624832],"scale":[0.002,0.001984973897854265,0.001],"rotation":[-0.7071067811865475,0,0,0.7071067811865476],"name":"Group","children":[1,8]},{"translation":[-0.00807919157355741,-0.5052173691101842,0],"scale":[1,1,1],"rotation":[0,0,0,1],"name":"Group 1","children":[2,3,4,5,6,7]},{"translation":[71.19538468410111,46.87397997835229,0],"scale":[0.06,0.060000000000000005,0.06],"rotation":[0,0,0,1],"name":"Tube 4","mesh":0},{"translation":[71.19538468410111,-46.87397997835229,0],"scale":[0.06,0.060000000000000005,0.06],"rotation":[0,0,0,1],"name":"Tube 5","mesh":1},{"translation":[0.14740245276211517,-46.87397997835229,0],"scale":[0.06,0.060000000000000005,0.06],"rotation":[0,0,0,1],"name":"Tube 3","mesh":2},{"translation":[-71.19538468410111,46.87397997835229,0],"scale":[0.06,0.060000000000000005,0.06],"rotation":[0,0,0,1],"name":"Tube 1","mesh":3},{"translation":[-71.19538468410111,-46.87397997835229,0],"scale":[0.06,0.060000000000000005,0.06],"rotation":[0,0,0,1],"name":"Tube","mesh":4},{"translation":[0.14740245276211517,46.87397997835229,0],"scale":[0.06,0.060000000000000005,0.06],"rotation":[0,0,0,1],"name":"Tube 2","mesh":5},{"translation":[0,0.37919734746248324,0],"scale":[1.5,1,0.05],"rotation":[0,0,0,1],"name":"Box","mesh":6}],"materials":[{"pbrMetallicRoughness":{"baseColorFactor":[0,0,0,1],"metallicFactor":0,"roughnessFactor":0.2},"name":"Goodbye Mist","emissiveFactor":[0,0,0],"alphaMode":"OPAQUE","doubleSided":false},{"pbrMetallicRoughness":{"baseColorFactor":[0,0,0,1],"metallicFactor":0,"roughnessFactor":0.2},"name":"Goodbye Mist 3","emissiveFactor":[0,0,0],"alphaMode":"OPAQUE","doubleSided":false},{"pbrMetallicRoughness":{"baseColorFactor":[0,0,0,1],"metallicFactor":0,"roughnessFactor":0.2},"name":"Goodbye Mist 4","emissiveFactor":[0,0,0],"alphaMode":"OPAQUE","doubleSided":false},{"pbrMetallicRoughness":{"baseColorFactor":[0,0,0,1],"metallicFactor":0,"roughnessFactor":0.2},"name":"Goodbye Mist 1","emissiveFactor":[0,0,0],"alphaMode":"OPAQUE","doubleSided":false},{"pbrMetallicRoughness":{"baseColorFactor":[0.023103556157921437,0.45907989242416014,0.06772458968542432,1],"metallicFactor":0,"roughnessFactor":0.2},"name":"Mara","emissiveFactor":[0,0,0],"alphaMode":"OPAQUE","doubleSided":false}],"meshes":[{"primitives":[{"mode":4,"attributes":{"POSITION":1,"NORMAL":2},"material":0,"indices":0}]},{"primitives":[{"mode":4,"attributes":{"POSITION":4,"NORMAL":5},"material":1,"indices":3}]},{"primitives":[{"mode":4,"attributes":{"POSITION":7,"NORMAL":8},"material":2,"indices":6}]},{"primitives":[{"mode":4,"attributes":{"POSITION":10,"NORMAL":11},"material":0,"indices":9}]},{"primitives":[{"mode":4,"attributes":{"POSITION":13,"NORMAL":14},"material":0,"indices":12}]},{"primitives":[{"mode":4,"attributes":{"POSITION":16,"NORMAL":17},"material":3,"indices":15}]},{"primitives":[{"mode":4,"attributes":{"POSITION":19,"NORMAL":20},"material":4,"indices":18}]}],"accessors":[{"bufferView":0,"byteOffset":0,"componentType":5125,"count":5184,"type":"SCALAR"},{"bufferView":1,"byteOffset":0,"componentType":5126,"count":910,"max":[50,50,100],"min":[-50,-50,0],"type":"VEC3"},{"bufferView":2,"byteOffset":0,"componentType":5126,"count":910,"type":"VEC3"},{"bufferView":3,"byteOffset":0,"componentType":5125,"count":5184,"type":"SCALAR"},{"bufferView":4,"byteOffset":0,"componentType":5126,"count":910,"max":[50,50,100],"min":[-50,-50,0],"type":"VEC3"},{"bufferView":5,"byteOffset":0,"componentType":5126,"count":910,"type":"VEC3"},{"bufferView":6,"byteOffset":0,"componentType":5125,"count":5184,"type":"SCALAR"},{"bufferView":7,"byteOffset":0,"componentType":5126,"count":910,"max":[50,50,100],"min":[-50,-50,0],"type":"VEC3"},{"bufferView":8,"byteOffset":0,"componentType":5126,"count":910,"type":"VEC3"},{"bufferView":9,"byteOffset":0,"componentType":5125,"count":5184,"type":"SCALAR"},{"bufferView":10,"byteOffset":0,"componentType":5126,"count":910,"max":[50,50,100],"min":[-50,-50,0],"type":"VEC3"},{"bufferView":11,"byteOffset":0,"componentType":5126,"count":910,"type":"VEC3"},{"bufferView":12,"byteOffset":0,"componentType":5125,"count":5184,"type":"SCALAR"},{"bufferView":13,"byteOffset":0,"componentType":5126,"count":910,"max":[50,50,100],"min":[-50,-50,0],"type":"VEC3"},{"bufferView":14,"byteOffset":0,"componentType":5126,"count":910,"type":"VEC3"},{"bufferView":15,"byteOffset":0,"componentType":5125,"count":5184,"type":"SCALAR"},{"bufferView":16,"byteOffset":0,"componentType":5126,"count":910,"max":[50,50,100],"min":[-50,-50,0],"type":"VEC3"},{"bufferView":17,"byteOffset":0,"componentType":5126,"count":910,"type":"VEC3"},{"bufferView":18,"byteOffset":0,"componentType":5125,"count":2916,"type":"SCALAR"},{"bufferView":19,"byteOffset":0,"componentType":5126,"count":488,"max":[50,50,100],"min":[-50,-50,0],"type":"VEC3"},{"bufferView":20,"byteOffset":0,"componentType":5126,"count":488,"type":"VEC3"}],"bufferViews":[{"buffer":0,"byteOffset":0,"byteLength":20736,"target":34963},{"buffer":0,"byteOffset":20736,"byteLength":10920,"target":34962},{"buffer":0,"byteOffset":31656,"byteLength":10920,"target":34962},{"buffer":0,"byteOffset":42576,"byteLength":20736,"target":34963},{"buffer":0,"byteOffset":63312,"byteLength":10920,"target":34962},{"buffer":0,"byteOffset":74232,"byteLength":10920,"target":34962},{"buffer":0,"byteOffset":85152,"byteLength":20736,"target":34963},{"buffer":0,"byteOffset":105888,"byteLength":10920,"target":34962},{"buffer":0,"byteOffset":116808,"byteLength":10920,"target":34962},{"buffer":0,"byteOffset":127728,"byteLength":20736,"target":34963},{"buffer":0,"byteOffset":148464,"byteLength":10920,"target":34962},{"buffer":0,"byteOffset":159384,"byteLength":10920,"target":34962},{"buffer":0,"byteOffset":170304,"byteLength":20736,"target":34963},{"buffer":0,"byteOffset":191040,"byteLength":10920,"target":34962},{"buffer":0,"byteOffset":201960,"byteLength":10920,"target":34962},{"buffer":0,"byteOffset":212880,"byteLength":20736,"target":34963},{"buffer":0,"byteOffset":233616,"byteLength":10920,"target":34962},{"buffer":0,"byteOffset":244536,"byteLength":10920,"target":34962},{"buffer":0,"byteOffset":255456,"byteLength":11664,"target":34963},{"buffer":0,"byteOffset":267120,"byteLength":5856,"target":34962},{"buffer":0,"byteOffset":272976,"byteLength":5856,"target":34962}],"scene":0,"scenes":[{"nodes":[0],"name":"Pool"}],"extensionsUsed":["KHR_texture_transform"],"buffers":[{"byteLength":278832,"uri":"Pool.bin"}]}